<svg width="253" height="25" viewBox="0 0 253 25" fill="none" xmlns="http://www.w3.org/2000/svg">
<path d="M19.8502 13.7329H4.85962V24.2235H0.365234V3.66975C0.365234 2.736 0.702745 1.92601 1.37774 1.25663C2.05274 0.581634 2.85711 0.244141 3.79086 0.244141H19.8502V4.73851H4.85962V9.23288H19.8502V13.7272V13.7329Z" fill="white"/>
<path d="M176.034 0.244141V13.1141L162.506 0.244141H176.034Z" fill="#635BFF"/>
<path d="M155.081 0.267578H153.77C152.91 0.306953 152.167 0.638845 151.543 1.26884C150.963 1.84822 150.631 2.52885 150.553 3.31072V24.2301H155.047V7.36069L172.867 24.2301H176.034V20.2195L155.081 0.267578Z" fill="white"/>
<path d="M46.1078 22.0408C46.1078 22.3558 46.0516 22.6427 45.9391 22.9127C45.8266 23.1827 45.6691 23.4133 45.4722 23.6045C45.2753 23.7958 45.0391 23.9533 44.7691 24.0658C44.4991 24.1783 44.2178 24.2345 43.9141 24.2345H34.1097C33.1816 24.2345 32.2478 24.1333 31.2972 23.9308C30.3466 23.7283 29.4297 23.4189 28.5466 23.0026C27.6578 22.5864 26.8253 22.052 26.0434 21.4052C25.2616 20.7583 24.5809 19.9933 23.9959 19.1045C23.4109 18.2158 22.9497 17.2033 22.6178 16.0614C22.2803 14.9195 22.1172 13.6427 22.1172 12.2364V0.243912H26.4653V12.2364C26.4653 13.4627 26.6341 14.5033 26.9772 15.347C27.3147 16.1964 27.7478 16.9052 28.2709 17.4733C28.7941 18.0414 29.3678 18.4858 29.9922 18.812C30.6166 19.1383 31.2128 19.3745 31.7753 19.532C32.3378 19.6895 32.8328 19.7852 33.2659 19.8245C33.6934 19.8639 33.9747 19.8808 34.1097 19.8808H41.7541V0.238281H46.1022V22.0352L46.1078 22.0408Z" fill="white"/>
<path d="M71.7417 22.1364C71.7417 22.4402 71.6855 22.7214 71.573 22.9858C71.4605 23.2446 71.3086 23.4696 71.1173 23.6608C70.9261 23.8521 70.7011 23.9983 70.4424 24.1108C70.1836 24.2177 69.9023 24.2739 69.6098 24.2739C69.3511 24.2739 69.0867 24.2233 68.8224 24.1277C68.558 24.032 68.3217 23.8746 68.1136 23.6552L52.628 7.48331V24.2345H48.3867V2.38143C48.3867 1.9483 48.5105 1.55457 48.7524 1.20019C48.9999 0.845817 49.3092 0.581422 49.6917 0.407047C50.0911 0.243922 50.5074 0.204564 50.9292 0.283314C51.3511 0.367689 51.7167 0.564563 52.0205 0.879563L67.5061 17.0345V0.255161H71.7474V22.1364H71.7417Z" fill="white"/>
<path d="M97.9816 14.1939C97.9816 15.6564 97.7284 17.0008 97.2222 18.227C96.7159 19.4533 96.0128 20.5108 95.1241 21.3995C94.2297 22.2883 93.1722 22.9802 91.9459 23.4808C90.7197 23.9814 89.3866 24.2345 87.9466 24.2345H76.2016C75.8866 24.2345 75.5997 24.1783 75.3297 24.0658C75.0597 23.9533 74.8291 23.8014 74.6378 23.6045C74.4409 23.4076 74.2891 23.177 74.1766 22.9127C74.0641 22.6427 74.0078 22.3558 74.0078 22.0408V2.43204C74.0078 2.12829 74.0641 1.84703 74.1766 1.57703C74.2891 1.30703 74.4409 1.07641 74.6378 0.873909C74.8347 0.671409 75.0653 0.519524 75.3297 0.407024C75.5997 0.294524 75.8866 0.238281 76.2016 0.238281H87.9466C89.3866 0.238281 90.7197 0.491387 91.9459 0.992012C93.1722 1.49264 94.2297 2.19014 95.1241 3.07327C96.0184 3.96202 96.7159 5.01953 97.2222 6.25141C97.7284 7.48328 97.9816 8.82764 97.9816 10.2733V14.1883V14.1939ZM93.6334 10.2789C93.6334 9.42952 93.4984 8.65889 93.2228 7.95576C92.9472 7.25264 92.5591 6.65079 92.0584 6.15579C91.5578 5.66079 90.9559 5.27264 90.2584 5.00264C89.5609 4.72701 88.7903 4.59203 87.9409 4.59203H78.3559V19.8808H87.9409C88.7903 19.8808 89.5609 19.7458 90.2584 19.4702C90.9559 19.2002 91.5522 18.812 92.0584 18.317C92.5591 17.822 92.9472 17.2258 93.2228 16.5283C93.4928 15.8308 93.6334 15.0545 93.6334 14.1939V10.2789Z" fill="white"/>
<path d="M122.038 24.2347H106.344C105.742 24.2347 105.084 24.1279 104.37 23.9197C103.655 23.706 102.997 23.3573 102.39 22.8735C101.782 22.3898 101.276 21.7598 100.865 20.9835C100.46 20.2073 100.258 19.2566 100.258 18.1316V2.43787C100.258 2.13412 100.314 1.85289 100.427 1.58289C100.539 1.31289 100.691 1.08227 100.888 0.879768C101.085 0.677268 101.315 0.525384 101.58 0.412884C101.85 0.300384 102.137 0.244141 102.452 0.244141H122.043V4.59225H104.612V18.126C104.612 18.6941 104.763 19.1273 105.062 19.431C105.365 19.7348 105.804 19.881 106.383 19.881H122.043V24.2291L122.038 24.2347ZM120.08 14.4304H106.344V10.0485H120.08V14.4304Z" fill="white"/>
<path d="M148.278 14.1939C148.278 15.6564 148.025 17.0008 147.519 18.227C147.013 19.4533 146.31 20.5108 145.421 21.3995C144.527 22.2883 143.469 22.9802 142.243 23.4808C141.017 23.9814 139.683 24.2345 138.243 24.2345H126.498C126.183 24.2345 125.897 24.1783 125.627 24.0658C125.357 23.9533 125.126 23.8014 124.935 23.6045C124.738 23.4076 124.586 23.177 124.473 22.9127C124.361 22.6427 124.305 22.3558 124.305 22.0408V2.43204C124.305 2.12829 124.361 1.84703 124.473 1.57703C124.586 1.30703 124.738 1.07641 124.935 0.873909C125.132 0.671409 125.362 0.519524 125.627 0.407024C125.897 0.294524 126.183 0.238281 126.498 0.238281H138.243C139.683 0.238281 141.017 0.491387 142.243 0.992012C143.469 1.49264 144.527 2.19014 145.421 3.07327C146.315 3.96202 147.013 5.01953 147.519 6.25141C148.025 7.48328 148.278 8.82764 148.278 10.2733V14.1883V14.1939ZM143.93 10.2789C143.93 9.42952 143.795 8.65889 143.52 7.95576C143.244 7.25264 142.856 6.65079 142.355 6.15579C141.855 5.66079 141.253 5.27264 140.555 5.00264C139.858 4.72701 139.087 4.59203 138.238 4.59203H128.653V19.8808H138.238C139.087 19.8808 139.858 19.7458 140.555 19.4702C141.253 19.2002 141.849 18.812 142.355 18.317C142.856 17.822 143.244 17.2258 143.52 16.5283C143.79 15.8308 143.93 15.0545 143.93 14.1939V10.2789Z" fill="white"/>
<path d="M200.085 24.2347H184.391C183.789 24.2347 183.131 24.1279 182.417 23.9197C181.702 23.706 181.044 23.3573 180.437 22.8735C179.829 22.3898 179.323 21.7598 178.912 20.9835C178.507 20.2073 178.305 19.2566 178.305 18.1316V2.43787C178.305 2.13412 178.361 1.85289 178.473 1.58289C178.586 1.31289 178.738 1.08227 178.935 0.879768C179.132 0.677268 179.362 0.525384 179.627 0.412884C179.897 0.300384 180.183 0.244141 180.498 0.244141H200.09V4.59225H182.658V18.126C182.658 18.6941 182.81 19.1273 183.108 19.431C183.412 19.7348 183.851 19.881 184.43 19.881H200.09V24.2291L200.085 24.2347ZM198.127 14.4304H184.391V10.0485H198.127V14.4304Z" fill="white"/>
<path d="M214.441 8.811L221.771 0.244141H227.711L217.389 12.2704L227.643 24.2347H221.737L214.441 15.7354L207.18 24.2347H201.256L211.494 12.2704L201.223 0.244141H207.112L214.441 8.811Z" fill="white"/>
<path d="M252.383 4.59225H242.798V24.2347H238.45V4.59225H228.848V0.244141H252.388V4.59225H252.383Z" fill="white"/>
</svg>
